# xmcd
#
# Track frame offsets:
#	150
#	16752
#	30985
#	46555
#	63067
#	76360
#	89587
#	104762
#	120592
#	132037
#	145125
#	162840
#	175277
#	186947
#
# Disc length: 2672
#
# Revision: 1
# Processed by: cddbd v1.5.1PL0 Copyright (c) Steve Scherf et al.
# Submitted via: CD-Datenbank 4.*
# Normalized: r0:TDELIM( - )
#
DISCID=aa0a6e0e
DTITLE=Various Artist - Good Times - Country Hits [CD2)
DYEAR=2001
DGENRE=Country
TTITLE0=Shenandoah - I Got You
TTITLE1=Rosanne Cash - Tennesee Flat Top Box
TTITLE2=Mac Davis - Rock'N' Roll
TTITLE3=Ty Herndon - Loved Too Much
TTITLE4=Moe Bundy - Yesterday Once More
TTITLE5=Lynn Anderson - Top Of The Word
TTITLE6=James Bonamy - She's Got A Mind Of Her Own
TTITLE7=Willie Nelson - Always On My Mind
TTITLE8=Elmer Bernstein/Johnny Cash - The Sons Of Katie Ei
TTITLE9=Tanya Tucker - Delta Dawn
TTITLE10=Collin Raye - Not That Different
TTITLE11=Charly McLaine - The Very Best Is You
TTITLE12=Johnny Cash - Ring Of Fire
TTITLE13=Cash, Nelson, Jennings, Kristofferson - Higwayman
EXTD=
EXTT0=
EXTT1=
EXTT2=
EXTT3=
EXTT4=
EXTT5=
EXTT6=
EXTT7=
EXTT8=
EXTT9=
EXTT10=
EXTT11=
EXTT12=
EXTT13=
PLAYORDER=
